PathFileType	4	(X/Y/Z)	72_1_47_p1_0-270_filt_butterworth.trc
DataRate	CameraRate	NumFrames	NumMarkers	Units	OrigDataRate	OrigDataStartFrame	OrigNumFrames
59.0	59.0	7	27	m	59.0	67	270
Frame#	Time	RHip			RKnee			RAnkle			RBigToe			RSmallToe			RHeel			LHip			LKnee			LAnkle			LBigToe			LSmallToe			LHeel			Neck			Head			Nose			RShoulder			RElbow			RWrist			RThumb			RIndex			RPinky			LShoulder			LElbow			LWrist			LThumb			LIndex			LPinky			
		X1	Y1	Z1	X2	Y2	Z2	X3	Y3	Z3	X4	Y4	Z4	X5	Y5	Z5	X6	Y6	Z6	X7	Y7	Z7	X8	Y8	Z8	X9	Y9	Z9	X10	Y10	Z10	X11	Y11	Z11	X12	Y12	Z12	X13	Y13	Z13	X14	Y14	Z14	X15	Y15	Z15	X16	Y16	Z16	X17	Y17	Z17	X18	Y18	Z18	X19	Y19	Z19	X20	Y20	Z20	X21	Y21	Z21	X22	Y22	Z22	X23	Y23	Z23	X24	Y24	Z24	X25	Y25	Z25	X26	Y26	Z26	X27	Y27	Z27	
67	1.1355932203389831	0.21828349095681263	0.5347691358093208	0.6075439388017083	0.21744203580088872	0.5733680041514129	1.0420012723245802	0.19333683140770888	0.6283476126933328	1.4590134540098703	0.14903958400873502	0.43589301930160634	1.4788023067704192	0.22682064380775674	0.4271642753002256	1.4609739473102412	0.18393098452547874	0.7275134221259175	1.5455181985909583	-0.01987312613811259	0.5987285744364339	0.6204387390248715	-0.01181874521214831	0.623521100204099	1.0563381707691035	-0.012030366659096606	0.645413277682096	1.4388444611859308	-0.002238056246124296	0.44375605387986977	1.4465469530753505	-0.06527684125276224	0.5091912911809152	1.4599531275863864	0.010733442741251905	0.6831329708535403	1.4967788629522083	0.07958506330741182	0.5021197920594235	-0.00925547879110067	0.06721986530191705	0.4328242500692219	-0.272107131805173	0.039624800673267825	0.364823880423224	-0.137446792303157	0.2592054928353812	0.5098451163560366	0.0828730302517805	0.3770708326741419	0.5109086676756368	0.34926599047639884	0.3112541904098111	0.3164661888131877	0.5217061242578054	0.28147886838640884	0.20362147197876018	0.5966052374128561	0.3069491808193505	0.20016052420656172	0.606819173050953	0.3336104165324514	0.27304702349220383	0.6379774378643082	-0.07720380294259946	0.5431125171131707	0.08130536922066463	-0.1292179741528033	0.6380203968767745	0.36998783661816753	-0.20786817576153277	0.4816638385733949	0.5496346664055959	-0.24101317423821342	0.3955033795301277	0.6351880069512214	-0.28334659106265325	0.36748497706169264	0.6330433366064102	-0.27199269799662523	0.4763391736272734	0.6682899669749319
68	1.152542372881356	0.21813791368235738	0.536678907602563	0.6079004711223072	0.21758975240653455	0.5737607086298041	1.043404318766844	0.19318293185340832	0.6290332451833911	1.458662594146999	0.1489886006400108	0.43457027564860895	1.478887735337953	0.22693803369780535	0.4270539859588319	1.4609762066784011	0.1836398499068875	0.7274204963697567	1.5457178131746652	-0.01996846326643253	0.5985361472819313	0.6203518228234686	-0.011863341325384722	0.623869411205895	1.057879352602369	-0.011652561251363717	0.6452455612694483	1.4383463089526505	-0.0019900467861208833	0.4441387147318737	1.4467331621899475	-0.06416184664021013	0.5072856258333445	1.4586134921631448	0.012626146769824317	0.6827257329263531	1.4958351038019622	0.07937536475995269	0.5026319298468309	-0.007489649191526455	0.0659125045405057	0.4313508587104828	-0.2696061311210369	0.038103297561014236	0.3612377954849883	-0.1368430600805806	0.25941572226399096	0.5082071989551236	0.08266212758076058	0.3763938198396121	0.5109129129640162	0.34957744314676337	0.31099624528058195	0.3198505057108028	0.5240231489222451	0.2780624215675304	0.1986101435374775	0.5939778226467817	0.29815549800240587	0.18873240564227847	0.6031750830912167	0.33028121284178474	0.27276616760431327	0.6383702274201939	-0.07719427616620683	0.5429161833163384	0.08226065621807227	-0.12925977285303555	0.6378843747612208	0.36936939960157	-0.2078327153406871	0.4814754674742816	0.5504208759512613	-0.23933847268992378	0.3997975324190548	0.6371888182643352	-0.2795498705506054	0.3600970184011966	0.6320501982687974	-0.267564808431867	0.4642669955637101	0.6659924825214256
69	1.1694915254237288	0.2178618673318928	0.5370362524590292	0.6093133601971819	0.21888420529202499	0.5744204767201526	1.04545975377686	0.19300755698764704	0.6293804432955838	1.4584773414798256	0.14910869848826638	0.4344394956161339	1.4790974175520537	0.22704527356597168	0.4269991486305882	1.4609698234235535	0.18347595020972207	0.7271385668857362	1.5459962325844057	-0.020105553854505926	0.5981085312343463	0.6203600154163724	-0.012237950524631119	0.6232375001291941	1.0592671095548736	-0.011112449220817888	0.6447869013624348	1.437436394646701	-0.00199109368003226	0.44412804492152713	1.4467364487657417	-0.06300333706528906	0.5033616725474719	1.458030525583069	0.014176336355485408	0.6827738486764874	1.4951361512786605	0.07867944458029769	0.5018046435084759	-0.005709068232460125	0.06575577279313125	0.4297391670432131	-0.2670760092563862	0.03659154274712956	0.35762934010343933	-0.13570570190936554	0.2593870706637185	0.504256953319192	0.08207971134418329	0.37487862109489367	0.509989646075295	0.3495879868609243	0.3103696121593986	0.32558798351756396	0.5266031828741113	0.27491056641115835	0.19559643728187517	0.593160602705082	0.28938493854520625	0.1791005633094314	0.6004127163438241	0.32704307921562864	0.2717362500793702	0.6386666649241978	-0.0774880160046184	0.542788737956913	0.08349084280749354	-0.12929340350091253	0.6373198112765384	0.3683998464222742	-0.20780946959534646	0.48123910571998324	0.551515274065002	-0.23712088957399285	0.4020591069981066	0.6388388998632855	-0.2758128725922041	0.35825590947393776	0.6328485267554933	-0.26276730517384117	0.4512096644882865	0.6636519738175082
70	1.1864406779661016	0.2170275377139811	0.5359988696377788	0.6104399455918709	0.21955066555467648	0.5702392581526147	1.046192581196633	0.19279641541749845	0.6291291579166353	1.4593580571736016	0.14917665821865259	0.4345793145765924	1.4790527482989182	0.22711609440289598	0.4270857566422077	1.4609705840678884	0.1831539404226832	0.7270013065034278	1.5467117865998663	-0.02043373614018957	0.597244986390276	0.6206895981739081	-0.013253064652866702	0.6206341893949388	1.0598995585631785	-0.010942076321518448	0.6441118023186723	1.4365916933082041	-0.0028499480380652325	0.4427604079684733	1.4459196625609234	-0.06268527965073882	0.49958528587642953	1.4586625012632748	0.015040193732859813	0.6828531643706307	1.4955018870683119	0.07682735272227309	0.4977609820425	-0.003925410030591728	0.06573839562021447	0.42587241396811754	-0.264867691461741	0.034572710636626126	0.35309857556138113	-0.1340403238341678	0.258730496808513	0.49906405409313803	0.08120467550952688	0.3729456851024369	0.5070114974680131	0.34937533560370454	0.30905539829322193	0.3316681238615865	0.5286270921291981	0.27178982431994647	0.1948945091121194	0.5945047961416464	0.2826248889572937	0.17586545707579504	0.5997560994531731	0.32350129730158417	0.2693296958682859	0.6387283600625202	-0.07849370983851328	0.5427296284417196	0.08426438873047036	-0.12941844863325205	0.6369162079452477	0.3682500922387455	-0.20781171157170078	0.4814514316166981	0.5529120961757907	-0.23330891593001557	0.40019898269228354	0.6401048561746986	-0.2725096881782594	0.3598198860435843	0.6352520665626364	-0.258342008786281	0.44005527399536615	0.6626622284568484
71	1.2033898305084745	0.21550527322695784	0.5344777027944553	0.6105634012793738	0.21779731603935487	0.5592298317990487	1.045617167933015	0.19246228025867426	0.6285167107272545	1.461686007083702	0.14910659678202487	0.4346215387333927	1.47863125165146	0.22708825795053433	0.4272380740815086	1.4609656736685137	0.18220446669115004	0.7270706041734795	1.5478163329369408	-0.020928750031076176	0.5963139482322228	0.6214612267753369	-0.014802188893471806	0.6166301529566842	1.0598794229378203	-0.011554797346958518	0.6435069969590507	1.4363700002705613	-0.004809687024629346	0.4393439238115262	1.4438055421085103	-0.06366750848560661	0.49729289092429774	1.459581644658638	0.014762466878568801	0.6824976599388092	1.4973684551925237	0.07444890670139998	0.49027549350995425	-0.001883427123642095	0.06476330580078665	0.41966311999891764	-0.2624641983119278	0.03223669807041392	0.34770454256147165	-0.131560514676389	0.2575760753714541	0.4948211141673136	0.0804228662799846	0.3715259255355436	0.5016515159127035	0.34914821676183955	0.3067582413126721	0.3353900335160819	0.5297891950010394	0.26772814488823315	0.19558025644122182	0.5972584946640447	0.27866073191492696	0.17950492228017184	0.6011813378814184	0.31999388414389995	0.26598291862596574	0.6386067287865423	-0.07994926893588762	0.5422714069452981	0.08433531390973711	-0.1295605621487363	0.636840700959631	0.37007670464423514	-0.20783461515193705	0.4824551725846037	0.5540455487097716	-0.227063396215466	0.39103840547236224	0.6395522031688413	-0.268946481324209	0.3624361791126163	0.6381304778211773	-0.2546825008857005	0.43274002887651297	0.6633754017331195
72	1.2203389830508475	0.2140121895211909	0.5344144490172517	0.609483101078651	0.2137790175523701	0.5457344010303721	1.04446850571938	0.19200541075329286	0.6279796467787343	1.4646413986707778	0.14900404779095142	0.43458308859316125	1.478041067862863	0.22697851517248951	0.4271739364351541	1.4608950229525148	0.18104247230531204	0.7272209905354781	1.5494612595748392	-0.021127458491358657	0.5965766991651297	0.6221889361472678	-0.016599759671642393	0.6121380338878115	1.059165546544399	-0.012563428700877994	0.6431714590462905	1.43660421612066	-0.007002812630783771	0.434920001718249	1.4410231374042848	-0.06541288469689985	0.49426085000653625	1.4586336047535036	0.013528327529850432	0.6817704886707543	1.5001079145140115	0.07262585118709003	0.48123833776002845	0.0006714364227871587	0.06264819358087327	0.413159002203503	-0.2595936283314596	0.03020734716577332	0.34189021751094045	-0.12795591458073197	0.25665283603981215	0.4919623487345788	0.08036717956660523	0.3711016739885459	0.4949467214271567	0.3492163135683123	0.3037952607916861	0.33570361163369006	0.5305201657075969	0.26208408540655603	0.19643392737007886	0.6002613893534757	0.2763929089216985	0.18574497993802802	0.6036749953740371	0.31727945423581055	0.26258945651702637	0.6385388047222189	-0.08112074530202412	0.5406121745188827	0.08428252177109129	-0.12972111095603606	0.6366670892466408	0.37338394053085516	-0.2077626982156528	0.4830939000477272	0.5545765051880465	-0.21867484888092156	0.3736027973539644	0.635797379771762	-0.26395868626514657	0.36518523400966624	0.640324715616789	-0.2510023700637571	0.4279962531859527	0.6643617803491968
73	1.2372881355932204	0.21371761616421703	0.5380823780257649	0.607887968027846	0.20968173338641216	0.5354755901156565	1.0430288515947659	0.19166844327453758	0.6277792559129076	1.4672539468193146	0.1492167870320345	0.4349315557292319	1.4782853129929667	0.22691445203147304	0.4267851955964212	1.4608574774260876	0.18035607938091622	0.7273045863141243	1.551142577241605	-0.02029765794206551	0.5993986173108686	0.6221481406990764	-0.018942997963249122	0.6054736650879173	1.056906175490869	-0.013213436011952896	0.6427575457997285	1.436743008767918	-0.008355039783053313	0.4317006418654675	1.4389431503981276	-0.06659084405929103	0.48754602015059856	1.4544943337619383	0.01198571826317159	0.6810930221434712	1.502347436094622	0.07140733533730359	0.4722205192781605	0.0038167863541455167	0.05988911739090197	0.4071965981302683	-0.25594845999919846	0.028996850051790524	0.3361490367337516	-0.12323766972367958	0.2564260845823575	0.4889435379939565	0.08176684603978797	0.37141872550829147	0.4889743622772394	0.3504762667292273	0.30104514881615274	0.33437305498060005	0.5319624812778244	0.2552175120094639	0.19683561084878348	0.6027494324475073	0.2740521097872436	0.18999092245994545	0.6061456878001668	0.31514364393210437	0.25874402326758406	0.6391116216813207	-0.08166374607055749	0.5372862920845621	0.08525720642307816	-0.13028077043187689	0.6352367005535371	0.3760224225359031	-0.20736633930360157	0.4806079993385577	0.5546489274534252	-0.2099213321809598	0.35256680704482435	0.6301144568463712	-0.25723254338197243	0.3668476064413706	0.6413534251897428	-0.24629415287796785	0.42412920104074814	0.664258354322339
